<?xml version='1.0' encoding='UTF-8'?>
<!DOCTYPE svg PUBLIC "-//W3C//DTD SVG 1.0//EN" "http://www.w3.org/TR/2001/REC-SVG-20010904/DTD/svg10.dtd">
<svg viewBox="0 0 832 920" xmlns="http://www.w3.org/2000/svg" xmlns:inkspace="http://www.inkscape.org/namespaces/inkscape" xmlns:xlink="http://www.w3.org/1999/xlink">
  <defs id="defs_block">
    <filter height="1.504" id="filter_blur" inkspace:collect="always" width="1.1575" x="-0.07875" y="-0.252">
      <feGaussianBlur id="feGaussianBlur3780" inkspace:collect="always" stdDeviation="4.2" />
    </filter>
  </defs>
  <title>blockdiag</title>
  <desc>blockdiag {
    orientation = portrait;
    edge_layout = flowchart;

    Action [label="Start", shape=flowchart.terminator];
    Method [label="Method", shape=flowchart.condition];
    Validation [label="入力値検証", shape=flowchart.condition];
    Authentication [label="認証", shape=flowchart.condition];
    Authorization [label="認可", shape=flowchart.condition];
    Process [label="処理", shape=flowchart.condition];
    Async [label="非同期", shape=flowchart.condition];
    Content [label="返却\nデータ無", shape=flowchart.condition];
    New [label="新規登録\nデータ", shape=flowchart.condition];
    400 [label="400", shape=flowchart.terminator, color=pink];
    401 [label="401", shape=flowchart.terminator, color=pink];
    403 [label="403", shape=flowchart.terminator, color=pink];
    404 [label="404", shape=flowchart.terminator, color=pink];
    409 [label="409", shape=flowchart.terminator, color=pink];
    500 [label="500", shape=flowchart.terminator, color=pink];
    202 [label="202", shape=flowchart.terminator, color=lightblue];
    204 [label="204", shape=flowchart.terminator, color=lightblue];
    200 [label="200", shape=flowchart.terminator, color=lightblue];
    201 [label="201", shape=flowchart.terminator, color=lightblue];

    // Action
    Action -&gt; Method;
    Method -&gt; GET[label="取得"];
    Method -&gt; POST[label="登録"];
    Method -&gt; PUT[label="更新"];
    Method -&gt; DELETE[label="削除"];

    // Method
    GET -&gt; Validation;
    POST -&gt; Validation;
    PUT -&gt; Validation;
    DELETE -&gt; Validation;

    // Validation
    Validation -&gt; Authentication[label=OK];
    Validation -&gt; 400[label=NG];

    // Authentication
    Authentication -&gt; Authorization[label=OK];
    Authentication -&gt; 401[label=NG];

    // Authorization
    Authorization -&gt; Process[label=OK];
    Authorization -&gt; 403[label=NG];

    // Process
    Process -&gt; Async[label=OK];
    Process -&gt; 404[label=NG];
    Process -&gt; 409[label=NG];
    Process -&gt; 500[label=NG];

    // Async
    Async -&gt; 202[label=YES];
    Async -&gt; Content[label=NO];

    // Content
    Content -&gt; 204[label=YES];
    Content -&gt; New[label=NO];

    // New
    New -&gt; 201[label=YES];
    New -&gt; 200[label=NO];
}</desc>
  <path d="M 83 46 L 179 46 A16,20 0 0 1 179 86 L 83 86 A16,20 0 0 1 83 46" fill="rgb(0,0,0)" stroke="rgb(0,0,0)" style="filter:url(#filter_blur);opacity:0.7;fill-opacity:1" />
  <polygon fill="rgb(0,0,0)" points="131,118 203,146 131,174 59,146 131,118" stroke="rgb(0,0,0)" style="filter:url(#filter_blur);opacity:0.7;fill-opacity:1" />
  <polygon fill="rgb(0,0,0)" points="131,278 203,306 131,334 59,306 131,278" stroke="rgb(0,0,0)" style="filter:url(#filter_blur);opacity:0.7;fill-opacity:1" />
  <polygon fill="rgb(0,0,0)" points="131,358 203,386 131,414 59,386 131,358" stroke="rgb(0,0,0)" style="filter:url(#filter_blur);opacity:0.7;fill-opacity:1" />
  <path d="M 275 366 L 371 366 A16,20 0 0 1 371 406 L 275 406 A16,20 0 0 1 275 366" fill="rgb(0,0,0)" stroke="rgb(0,0,0)" style="filter:url(#filter_blur);opacity:0.7;fill-opacity:1" />
  <polygon fill="rgb(0,0,0)" points="131,438 203,466 131,494 59,466 131,438" stroke="rgb(0,0,0)" style="filter:url(#filter_blur);opacity:0.7;fill-opacity:1" />
  <path d="M 275 446 L 371 446 A16,20 0 0 1 371 486 L 275 486 A16,20 0 0 1 275 446" fill="rgb(0,0,0)" stroke="rgb(0,0,0)" style="filter:url(#filter_blur);opacity:0.7;fill-opacity:1" />
  <polygon fill="rgb(0,0,0)" points="131,518 203,546 131,574 59,546 131,518" stroke="rgb(0,0,0)" style="filter:url(#filter_blur);opacity:0.7;fill-opacity:1" />
  <path d="M 275 526 L 371 526 A16,20 0 0 1 371 566 L 275 566 A16,20 0 0 1 275 526" fill="rgb(0,0,0)" stroke="rgb(0,0,0)" style="filter:url(#filter_blur);opacity:0.7;fill-opacity:1" />
  <polygon fill="rgb(0,0,0)" points="131,598 203,626 131,654 59,626 131,598" stroke="rgb(0,0,0)" style="filter:url(#filter_blur);opacity:0.7;fill-opacity:1" />
  <path d="M 275 606 L 371 606 A16,20 0 0 1 371 646 L 275 646 A16,20 0 0 1 275 606" fill="rgb(0,0,0)" stroke="rgb(0,0,0)" style="filter:url(#filter_blur);opacity:0.7;fill-opacity:1" />
  <path d="M 467 606 L 563 606 A16,20 0 0 1 563 646 L 467 646 A16,20 0 0 1 467 606" fill="rgb(0,0,0)" stroke="rgb(0,0,0)" style="filter:url(#filter_blur);opacity:0.7;fill-opacity:1" />
  <path d="M 659 606 L 755 606 A16,20 0 0 1 755 646 L 659 646 A16,20 0 0 1 659 606" fill="rgb(0,0,0)" stroke="rgb(0,0,0)" style="filter:url(#filter_blur);opacity:0.7;fill-opacity:1" />
  <polygon fill="rgb(0,0,0)" points="131,678 203,706 131,734 59,706 131,678" stroke="rgb(0,0,0)" style="filter:url(#filter_blur);opacity:0.7;fill-opacity:1" />
  <path d="M 275 686 L 371 686 A16,20 0 0 1 371 726 L 275 726 A16,20 0 0 1 275 686" fill="rgb(0,0,0)" stroke="rgb(0,0,0)" style="filter:url(#filter_blur);opacity:0.7;fill-opacity:1" />
  <polygon fill="rgb(0,0,0)" points="131,758 203,786 131,814 59,786 131,758" stroke="rgb(0,0,0)" style="filter:url(#filter_blur);opacity:0.7;fill-opacity:1" />
  <path d="M 275 766 L 371 766 A16,20 0 0 1 371 806 L 275 806 A16,20 0 0 1 275 766" fill="rgb(0,0,0)" stroke="rgb(0,0,0)" style="filter:url(#filter_blur);opacity:0.7;fill-opacity:1" />
  <path d="M 83 846 L 179 846 A16,20 0 0 1 179 886 L 83 886 A16,20 0 0 1 83 846" fill="rgb(0,0,0)" stroke="rgb(0,0,0)" style="filter:url(#filter_blur);opacity:0.7;fill-opacity:1" />
  <path d="M 275 846 L 371 846 A16,20 0 0 1 371 886 L 275 886 A16,20 0 0 1 275 846" fill="rgb(0,0,0)" stroke="rgb(0,0,0)" style="filter:url(#filter_blur);opacity:0.7;fill-opacity:1" />
  <rect fill="rgb(0,0,0)" height="40" stroke="rgb(0,0,0)" style="filter:url(#filter_blur);opacity:0.7;fill-opacity:1" width="128" x="67" y="206" />
  <rect fill="rgb(0,0,0)" height="40" stroke="rgb(0,0,0)" style="filter:url(#filter_blur);opacity:0.7;fill-opacity:1" width="128" x="259" y="206" />
  <rect fill="rgb(0,0,0)" height="40" stroke="rgb(0,0,0)" style="filter:url(#filter_blur);opacity:0.7;fill-opacity:1" width="128" x="451" y="206" />
  <rect fill="rgb(0,0,0)" height="40" stroke="rgb(0,0,0)" style="filter:url(#filter_blur);opacity:0.7;fill-opacity:1" width="128" x="643" y="206" />
  <path d="M 80 40 L 176 40 A16,20 0 0 1 176 80 L 80 80 A16,20 0 0 1 80 40" fill="rgb(255,255,255)" stroke="rgb(0,0,0)" />
  <text fill="rgb(0,0,0)" font-family="sans-serif" font-size="11" font-style="normal" font-weight="normal" text-anchor="middle" textLength="25" x="128" y="65">Start</text>
  <polygon fill="rgb(255,255,255)" points="128,112 200,140 128,168 56,140 128,112" stroke="rgb(0,0,0)" />
  <text fill="rgb(0,0,0)" font-family="sans-serif" font-size="11" font-style="normal" font-weight="normal" text-anchor="middle" textLength="38" x="128" y="145">Method</text>
  <polygon fill="rgb(255,255,255)" points="128,272 200,300 128,328 56,300 128,272" stroke="rgb(0,0,0)" />
  <text fill="rgb(0,0,0)" font-family="sans-serif" font-size="11" font-style="normal" font-weight="normal" text-anchor="middle" textLength="55" x="128" y="306">入力値検証</text>
  <polygon fill="rgb(255,255,255)" points="128,352 200,380 128,408 56,380 128,352" stroke="rgb(0,0,0)" />
  <text fill="rgb(0,0,0)" font-family="sans-serif" font-size="11" font-style="normal" font-weight="normal" text-anchor="middle" textLength="22" x="128" y="386">認証</text>
  <path d="M 272 360 L 368 360 A16,20 0 0 1 368 400 L 272 400 A16,20 0 0 1 272 360" fill="rgb(255,192,203)" stroke="rgb(0,0,0)" />
  <text fill="rgb(0,0,0)" font-family="sans-serif" font-size="11" font-style="normal" font-weight="normal" text-anchor="middle" textLength="21" x="320" y="385">400</text>
  <polygon fill="rgb(255,255,255)" points="128,432 200,460 128,488 56,460 128,432" stroke="rgb(0,0,0)" />
  <text fill="rgb(0,0,0)" font-family="sans-serif" font-size="11" font-style="normal" font-weight="normal" text-anchor="middle" textLength="22" x="128" y="465">認可</text>
  <path d="M 272 440 L 368 440 A16,20 0 0 1 368 480 L 272 480 A16,20 0 0 1 272 440" fill="rgb(255,192,203)" stroke="rgb(0,0,0)" />
  <text fill="rgb(0,0,0)" font-family="sans-serif" font-size="11" font-style="normal" font-weight="normal" text-anchor="middle" textLength="21" x="320" y="465">401</text>
  <polygon fill="rgb(255,255,255)" points="128,512 200,540 128,568 56,540 128,512" stroke="rgb(0,0,0)" />
  <text fill="rgb(0,0,0)" font-family="sans-serif" font-size="11" font-style="normal" font-weight="normal" text-anchor="middle" textLength="22" x="128" y="546">処理</text>
  <path d="M 272 520 L 368 520 A16,20 0 0 1 368 560 L 272 560 A16,20 0 0 1 272 520" fill="rgb(255,192,203)" stroke="rgb(0,0,0)" />
  <text fill="rgb(0,0,0)" font-family="sans-serif" font-size="11" font-style="normal" font-weight="normal" text-anchor="middle" textLength="21" x="320" y="545">403</text>
  <polygon fill="rgb(255,255,255)" points="128,592 200,620 128,648 56,620 128,592" stroke="rgb(0,0,0)" />
  <text fill="rgb(0,0,0)" font-family="sans-serif" font-size="11" font-style="normal" font-weight="normal" text-anchor="middle" textLength="33" x="128" y="626">非同期</text>
  <path d="M 272 600 L 368 600 A16,20 0 0 1 368 640 L 272 640 A16,20 0 0 1 272 600" fill="rgb(255,192,203)" stroke="rgb(0,0,0)" />
  <text fill="rgb(0,0,0)" font-family="sans-serif" font-size="11" font-style="normal" font-weight="normal" text-anchor="middle" textLength="21" x="320" y="625">404</text>
  <path d="M 464 600 L 560 600 A16,20 0 0 1 560 640 L 464 640 A16,20 0 0 1 464 600" fill="rgb(255,192,203)" stroke="rgb(0,0,0)" />
  <text fill="rgb(0,0,0)" font-family="sans-serif" font-size="11" font-style="normal" font-weight="normal" text-anchor="middle" textLength="22" x="512" y="625">409</text>
  <path d="M 656 600 L 752 600 A16,20 0 0 1 752 640 L 656 640 A16,20 0 0 1 656 600" fill="rgb(255,192,203)" stroke="rgb(0,0,0)" />
  <text fill="rgb(0,0,0)" font-family="sans-serif" font-size="11" font-style="normal" font-weight="normal" text-anchor="middle" textLength="21" x="704" y="625">500</text>
  <polygon fill="rgb(255,255,255)" points="128,672 200,700 128,728 56,700 128,672" stroke="rgb(0,0,0)" />
  <text fill="rgb(0,0,0)" font-family="sans-serif" font-size="11" font-style="normal" font-weight="normal" text-anchor="middle" textLength="22" x="128" y="699">返却</text>
  <text fill="rgb(0,0,0)" font-family="sans-serif" font-size="11" font-style="normal" font-weight="normal" text-anchor="middle" textLength="44" x="128" y="712">データ無</text>
  <path d="M 272 680 L 368 680 A16,20 0 0 1 368 720 L 272 720 A16,20 0 0 1 272 680" fill="rgb(173,216,230)" stroke="rgb(0,0,0)" />
  <text fill="rgb(0,0,0)" font-family="sans-serif" font-size="11" font-style="normal" font-weight="normal" text-anchor="middle" textLength="21" x="320" y="705">202</text>
  <polygon fill="rgb(255,255,255)" points="128,752 200,780 128,808 56,780 128,752" stroke="rgb(0,0,0)" />
  <text fill="rgb(0,0,0)" font-family="sans-serif" font-size="11" font-style="normal" font-weight="normal" text-anchor="middle" textLength="44" x="128" y="779">新規登録</text>
  <text fill="rgb(0,0,0)" font-family="sans-serif" font-size="11" font-style="normal" font-weight="normal" text-anchor="middle" textLength="33" x="128" y="792">データ</text>
  <path d="M 272 760 L 368 760 A16,20 0 0 1 368 800 L 272 800 A16,20 0 0 1 272 760" fill="rgb(173,216,230)" stroke="rgb(0,0,0)" />
  <text fill="rgb(0,0,0)" font-family="sans-serif" font-size="11" font-style="normal" font-weight="normal" text-anchor="middle" textLength="21" x="320" y="785">204</text>
  <path d="M 80 840 L 176 840 A16,20 0 0 1 176 880 L 80 880 A16,20 0 0 1 80 840" fill="rgb(173,216,230)" stroke="rgb(0,0,0)" />
  <text fill="rgb(0,0,0)" font-family="sans-serif" font-size="11" font-style="normal" font-weight="normal" text-anchor="middle" textLength="21" x="128" y="865">200</text>
  <path d="M 272 840 L 368 840 A16,20 0 0 1 368 880 L 272 880 A16,20 0 0 1 272 840" fill="rgb(173,216,230)" stroke="rgb(0,0,0)" />
  <text fill="rgb(0,0,0)" font-family="sans-serif" font-size="11" font-style="normal" font-weight="normal" text-anchor="middle" textLength="21" x="320" y="865">201</text>
  <rect fill="rgb(255,255,255)" height="40" stroke="rgb(0,0,0)" width="128" x="64" y="200" />
  <text fill="rgb(0,0,0)" font-family="sans-serif" font-size="11" font-style="normal" font-weight="normal" text-anchor="middle" textLength="21" x="128" y="225">GET</text>
  <rect fill="rgb(255,255,255)" height="40" stroke="rgb(0,0,0)" width="128" x="256" y="200" />
  <text fill="rgb(0,0,0)" font-family="sans-serif" font-size="11" font-style="normal" font-weight="normal" text-anchor="middle" textLength="30" x="320" y="225">POST</text>
  <rect fill="rgb(255,255,255)" height="40" stroke="rgb(0,0,0)" width="128" x="448" y="200" />
  <text fill="rgb(0,0,0)" font-family="sans-serif" font-size="11" font-style="normal" font-weight="normal" text-anchor="middle" textLength="22" x="512" y="225">PUT</text>
  <rect fill="rgb(255,255,255)" height="40" stroke="rgb(0,0,0)" width="128" x="640" y="200" />
  <text fill="rgb(0,0,0)" font-family="sans-serif" font-size="11" font-style="normal" font-weight="normal" text-anchor="middle" textLength="39" x="704" y="225">DELETE</text>
  <path d="M 128 80 L 128 104" fill="none" stroke="rgb(0,0,0)" />
  <polygon fill="rgb(0,0,0)" points="128,111 124,104 132,104 128,111" stroke="rgb(0,0,0)" />
  <path d="M 200 140 L 512 140" fill="none" stroke="rgb(0,0,0)" />
  <path d="M 512 140 L 512 192" fill="none" stroke="rgb(0,0,0)" />
  <polygon fill="rgb(0,0,0)" points="512,199 508,192 516,192 512,199" stroke="rgb(0,0,0)" />
  <path d="M 200 140 L 704 140" fill="none" stroke="rgb(0,0,0)" />
  <path d="M 704 140 L 704 192" fill="none" stroke="rgb(0,0,0)" />
  <polygon fill="rgb(0,0,0)" points="704,199 700,192 708,192 704,199" stroke="rgb(0,0,0)" />
  <path d="M 128 168 L 128 192" fill="none" stroke="rgb(0,0,0)" />
  <polygon fill="rgb(0,0,0)" points="128,199 124,192 132,192 128,199" stroke="rgb(0,0,0)" />
  <path d="M 200 140 L 320 140" fill="none" stroke="rgb(0,0,0)" />
  <path d="M 320 140 L 320 192" fill="none" stroke="rgb(0,0,0)" />
  <polygon fill="rgb(0,0,0)" points="320,199 316,192 324,192 320,199" stroke="rgb(0,0,0)" />
  <path d="M 200 300 L 320 300" fill="none" stroke="rgb(0,0,0)" />
  <path d="M 320 300 L 320 352" fill="none" stroke="rgb(0,0,0)" />
  <polygon fill="rgb(0,0,0)" points="320,359 316,352 324,352 320,359" stroke="rgb(0,0,0)" />
  <path d="M 128 328 L 128 344" fill="none" stroke="rgb(0,0,0)" />
  <polygon fill="rgb(0,0,0)" points="128,351 124,344 132,344 128,351" stroke="rgb(0,0,0)" />
  <path d="M 128 408 L 128 424" fill="none" stroke="rgb(0,0,0)" />
  <polygon fill="rgb(0,0,0)" points="128,431 124,424 132,424 128,431" stroke="rgb(0,0,0)" />
  <path d="M 200 380 L 240 380" fill="none" stroke="rgb(0,0,0)" />
  <path d="M 240 380 L 240 420" fill="none" stroke="rgb(0,0,0)" />
  <path d="M 240 420 L 320 420" fill="none" stroke="rgb(0,0,0)" />
  <path d="M 320 420 L 320 432" fill="none" stroke="rgb(0,0,0)" />
  <polygon fill="rgb(0,0,0)" points="320,439 316,432 324,432 320,439" stroke="rgb(0,0,0)" />
  <path d="M 200 460 L 240 460" fill="none" stroke="rgb(0,0,0)" />
  <path d="M 240 460 L 240 500" fill="none" stroke="rgb(0,0,0)" />
  <path d="M 240 500 L 320 500" fill="none" stroke="rgb(0,0,0)" />
  <path d="M 320 500 L 320 512" fill="none" stroke="rgb(0,0,0)" />
  <polygon fill="rgb(0,0,0)" points="320,519 316,512 324,512 320,519" stroke="rgb(0,0,0)" />
  <path d="M 128 488 L 128 504" fill="none" stroke="rgb(0,0,0)" />
  <polygon fill="rgb(0,0,0)" points="128,511 124,504 132,504 128,511" stroke="rgb(0,0,0)" />
  <path d="M 200 540 L 240 540" fill="none" stroke="rgb(0,0,0)" />
  <path d="M 240 540 L 240 580" fill="none" stroke="rgb(0,0,0)" />
  <path d="M 240 580 L 704 580" fill="none" stroke="rgb(0,0,0)" />
  <path d="M 704 580 L 704 592" fill="none" stroke="rgb(0,0,0)" />
  <polygon fill="rgb(0,0,0)" points="704,599 700,592 708,592 704,599" stroke="rgb(0,0,0)" />
  <path d="M 200 540 L 240 540" fill="none" stroke="rgb(0,0,0)" />
  <path d="M 240 540 L 240 580" fill="none" stroke="rgb(0,0,0)" />
  <path d="M 240 580 L 512 580" fill="none" stroke="rgb(0,0,0)" />
  <path d="M 512 580 L 512 592" fill="none" stroke="rgb(0,0,0)" />
  <polygon fill="rgb(0,0,0)" points="512,599 508,592 516,592 512,599" stroke="rgb(0,0,0)" />
  <path d="M 128 568 L 128 584" fill="none" stroke="rgb(0,0,0)" />
  <polygon fill="rgb(0,0,0)" points="128,591 124,584 132,584 128,591" stroke="rgb(0,0,0)" />
  <path d="M 200 540 L 240 540" fill="none" stroke="rgb(0,0,0)" />
  <path d="M 240 540 L 240 580" fill="none" stroke="rgb(0,0,0)" />
  <path d="M 240 580 L 320 580" fill="none" stroke="rgb(0,0,0)" />
  <path d="M 320 580 L 320 592" fill="none" stroke="rgb(0,0,0)" />
  <polygon fill="rgb(0,0,0)" points="320,599 316,592 324,592 320,599" stroke="rgb(0,0,0)" />
  <path d="M 128 648 L 128 664" fill="none" stroke="rgb(0,0,0)" />
  <polygon fill="rgb(0,0,0)" points="128,671 124,664 132,664 128,671" stroke="rgb(0,0,0)" />
  <path d="M 200 620 L 240 620" fill="none" stroke="rgb(0,0,0)" />
  <path d="M 240 620 L 240 660" fill="none" stroke="rgb(0,0,0)" />
  <path d="M 240 660 L 320 660" fill="none" stroke="rgb(0,0,0)" />
  <path d="M 320 660 L 320 672" fill="none" stroke="rgb(0,0,0)" />
  <polygon fill="rgb(0,0,0)" points="320,679 316,672 324,672 320,679" stroke="rgb(0,0,0)" />
  <path d="M 200 700 L 240 700" fill="none" stroke="rgb(0,0,0)" />
  <path d="M 240 700 L 240 740" fill="none" stroke="rgb(0,0,0)" />
  <path d="M 240 740 L 320 740" fill="none" stroke="rgb(0,0,0)" />
  <path d="M 320 740 L 320 752" fill="none" stroke="rgb(0,0,0)" />
  <polygon fill="rgb(0,0,0)" points="320,759 316,752 324,752 320,759" stroke="rgb(0,0,0)" />
  <path d="M 128 728 L 128 744" fill="none" stroke="rgb(0,0,0)" />
  <polygon fill="rgb(0,0,0)" points="128,751 124,744 132,744 128,751" stroke="rgb(0,0,0)" />
  <path d="M 200 780 L 240 780" fill="none" stroke="rgb(0,0,0)" />
  <path d="M 240 780 L 240 820" fill="none" stroke="rgb(0,0,0)" />
  <path d="M 240 820 L 320 820" fill="none" stroke="rgb(0,0,0)" />
  <path d="M 320 820 L 320 832" fill="none" stroke="rgb(0,0,0)" />
  <polygon fill="rgb(0,0,0)" points="320,839 316,832 324,832 320,839" stroke="rgb(0,0,0)" />
  <path d="M 128 808 L 128 832" fill="none" stroke="rgb(0,0,0)" />
  <polygon fill="rgb(0,0,0)" points="128,839 124,832 132,832 128,839" stroke="rgb(0,0,0)" />
  <path d="M 128 240 L 128 264" fill="none" stroke="rgb(0,0,0)" />
  <polygon fill="rgb(0,0,0)" points="128,271 124,264 132,264 128,271" stroke="rgb(0,0,0)" />
  <path d="M 320 240 L 320 260" fill="none" stroke="rgb(0,0,0)" />
  <path d="M 128 260 L 320 260" fill="none" stroke="rgb(0,0,0)" />
  <path d="M 128 260 L 128 264" fill="none" stroke="rgb(0,0,0)" />
  <polygon fill="rgb(0,0,0)" points="128,271 124,264 132,264 128,271" stroke="rgb(0,0,0)" />
  <path d="M 512 240 L 512 260" fill="none" stroke="rgb(0,0,0)" />
  <path d="M 128 260 L 512 260" fill="none" stroke="rgb(0,0,0)" />
  <path d="M 128 260 L 128 264" fill="none" stroke="rgb(0,0,0)" />
  <polygon fill="rgb(0,0,0)" points="128,271 124,264 132,264 128,271" stroke="rgb(0,0,0)" />
  <path d="M 704 240 L 704 260" fill="none" stroke="rgb(0,0,0)" />
  <path d="M 128 260 L 704 260" fill="none" stroke="rgb(0,0,0)" />
  <path d="M 128 260 L 128 264" fill="none" stroke="rgb(0,0,0)" />
  <polygon fill="rgb(0,0,0)" points="128,271 124,264 132,264 128,271" stroke="rgb(0,0,0)" />
  <rect fill="white" height="14" stroke="rgb(0,0,0)" width="38" x="461" y="183" />
  <text fill="rgb(0,0,0)" font-family="sans-serif" font-size="11" font-style="normal" font-weight="normal" text-anchor="middle" textLength="22" x="480" y="195">更新</text>
  <rect fill="white" height="15" stroke="rgb(0,0,0)" width="38" x="653" y="183" />
  <text fill="rgb(0,0,0)" font-family="sans-serif" font-size="11" font-style="normal" font-weight="normal" text-anchor="middle" textLength="22" x="672" y="196">削除</text>
  <rect fill="white" height="15" stroke="rgb(0,0,0)" width="38" x="77" y="183" />
  <text fill="rgb(0,0,0)" font-family="sans-serif" font-size="11" font-style="normal" font-weight="normal" text-anchor="middle" textLength="22" x="96" y="196">取得</text>
  <rect fill="white" height="15" stroke="rgb(0,0,0)" width="38" x="269" y="183" />
  <text fill="rgb(0,0,0)" font-family="sans-serif" font-size="11" font-style="normal" font-weight="normal" text-anchor="middle" textLength="22" x="288" y="196">登録</text>
  <rect fill="white" height="14" stroke="rgb(0,0,0)" width="32" x="272" y="343" />
  <text fill="rgb(0,0,0)" font-family="sans-serif" font-size="11" font-style="normal" font-weight="normal" text-anchor="middle" textLength="16" x="288" y="355">NG</text>
  <rect fill="white" height="14" stroke="rgb(0,0,0)" width="32" x="80" y="343" />
  <text fill="rgb(0,0,0)" font-family="sans-serif" font-size="11" font-style="normal" font-weight="normal" text-anchor="middle" textLength="16" x="96" y="355">OK</text>
  <rect fill="white" height="14" stroke="rgb(0,0,0)" width="32" x="80" y="423" />
  <text fill="rgb(0,0,0)" font-family="sans-serif" font-size="11" font-style="normal" font-weight="normal" text-anchor="middle" textLength="16" x="96" y="435">OK</text>
  <rect fill="white" height="14" stroke="rgb(0,0,0)" width="32" x="272" y="423" />
  <text fill="rgb(0,0,0)" font-family="sans-serif" font-size="11" font-style="normal" font-weight="normal" text-anchor="middle" textLength="16" x="288" y="435">NG</text>
  <rect fill="white" height="14" stroke="rgb(0,0,0)" width="32" x="272" y="503" />
  <text fill="rgb(0,0,0)" font-family="sans-serif" font-size="11" font-style="normal" font-weight="normal" text-anchor="middle" textLength="16" x="288" y="515">NG</text>
  <rect fill="white" height="14" stroke="rgb(0,0,0)" width="32" x="80" y="503" />
  <text fill="rgb(0,0,0)" font-family="sans-serif" font-size="11" font-style="normal" font-weight="normal" text-anchor="middle" textLength="16" x="96" y="515">OK</text>
  <rect fill="white" height="14" stroke="rgb(0,0,0)" width="32" x="656" y="583" />
  <text fill="rgb(0,0,0)" font-family="sans-serif" font-size="11" font-style="normal" font-weight="normal" text-anchor="middle" textLength="16" x="672" y="595">NG</text>
  <rect fill="white" height="14" stroke="rgb(0,0,0)" width="32" x="464" y="583" />
  <text fill="rgb(0,0,0)" font-family="sans-serif" font-size="11" font-style="normal" font-weight="normal" text-anchor="middle" textLength="16" x="480" y="595">NG</text>
  <rect fill="white" height="14" stroke="rgb(0,0,0)" width="32" x="80" y="583" />
  <text fill="rgb(0,0,0)" font-family="sans-serif" font-size="11" font-style="normal" font-weight="normal" text-anchor="middle" textLength="16" x="96" y="595">OK</text>
  <rect fill="white" height="14" stroke="rgb(0,0,0)" width="32" x="272" y="583" />
  <text fill="rgb(0,0,0)" font-family="sans-serif" font-size="11" font-style="normal" font-weight="normal" text-anchor="middle" textLength="16" x="288" y="595">NG</text>
  <rect fill="white" height="14" stroke="rgb(0,0,0)" width="33" x="80" y="663" />
  <text fill="rgb(0,0,0)" font-family="sans-serif" font-size="11" font-style="normal" font-weight="normal" text-anchor="middle" textLength="17" x="96" y="675">NO</text>
  <rect fill="white" height="14" stroke="rgb(0,0,0)" width="37" x="270" y="663" />
  <text fill="rgb(0,0,0)" font-family="sans-serif" font-size="11" font-style="normal" font-weight="normal" text-anchor="middle" textLength="21" x="288" y="675">YES</text>
  <rect fill="white" height="14" stroke="rgb(0,0,0)" width="37" x="270" y="743" />
  <text fill="rgb(0,0,0)" font-family="sans-serif" font-size="11" font-style="normal" font-weight="normal" text-anchor="middle" textLength="21" x="288" y="755">YES</text>
  <rect fill="white" height="14" stroke="rgb(0,0,0)" width="33" x="80" y="743" />
  <text fill="rgb(0,0,0)" font-family="sans-serif" font-size="11" font-style="normal" font-weight="normal" text-anchor="middle" textLength="17" x="96" y="755">NO</text>
  <rect fill="white" height="14" stroke="rgb(0,0,0)" width="37" x="270" y="823" />
  <text fill="rgb(0,0,0)" font-family="sans-serif" font-size="11" font-style="normal" font-weight="normal" text-anchor="middle" textLength="21" x="288" y="835">YES</text>
  <rect fill="white" height="14" stroke="rgb(0,0,0)" width="33" x="80" y="823" />
  <text fill="rgb(0,0,0)" font-family="sans-serif" font-size="11" font-style="normal" font-weight="normal" text-anchor="middle" textLength="17" x="96" y="835">NO</text>
</svg>
